<?xml version="1.0" encoding="UTF-8"?><svg id="Lag_1" xmlns="http://www.w3.org/2000/svg" viewBox="0 0 303.13 48.03"><defs><style>.cls-1,.cls-2{fill:#223e29;}.cls-2{stroke:#1d1d1b;stroke-miterlimit:10;stroke-width:.5px;}</style></defs><g><path class="cls-1" d="m16.36,4.55c-.09,1.08-.17,2-.21,2.76-.05.76-.07,1.48-.07,2.16v29.58c0,1.72,1.68,2.58,5.04,2.58v3.42H3.23v-3.42c3.93,0,5.9-.86,5.9-2.58V14.27H2.81l-.19-3.24c4.44-.12,7.5-2.5,9.18-7.14l4.57.66Z"/><path class="cls-1" d="m31.19,39.47c.48.92,1.29,1.65,2.45,2.19,1.16.54,2.51.81,4.07.81,1.27,0,2.38-.26,3.35-.78.97-.52,1.78-1.42,2.42-2.7s1.13-3.01,1.45-5.19c.32-2.18.48-4.95.48-8.31-1.68,3.4-4.68,5.1-8.99,5.1-1.62,0-3.05-.32-4.3-.96-1.25-.64-2.31-1.53-3.19-2.67-.87-1.14-1.53-2.46-1.97-3.96-.44-1.5-.67-3.13-.67-4.89s.19-3.54.57-5.22c.38-1.68,1.05-3.17,2.02-4.47s2.29-2.34,3.97-3.12,3.84-1.17,6.47-1.17c2.06,0,3.88.38,5.47,1.14,1.58.76,2.92,1.99,4.02,3.69s1.92,3.91,2.47,6.63c.55,2.72.83,6.06.83,10.02,0,2.64-.25,5.19-.74,7.65-.49,2.46-1.29,4.64-2.4,6.54-1.11,1.9-2.55,3.41-4.33,4.53-1.78,1.12-3.96,1.68-6.56,1.68-1.62,0-3.12-.25-4.52-.75-1.4-.5-2.61-1.18-3.64-2.04-1.03-.86-1.84-1.88-2.43-3.06-.59-1.18-.88-2.45-.88-3.81s.29-2.45.86-3.27c.57-.82,1.41-1.23,2.52-1.23s1.96.4,2.57,1.2c.6.8.9,1.8.9,3,0,.92-.23,1.7-.69,2.34-.46.64-.99,1-1.59,1.08Zm7.8-31.92c-1.74,0-3.21.77-4.4,2.3-1.19,1.54-1.78,3.96-1.78,7.27,0,1.67.16,3.1.47,4.28.32,1.18.75,2.14,1.31,2.9.55.76,1.2,1.31,1.95,1.65.74.34,1.55.51,2.4.51,1.74,0,3.19-.72,4.33-2.15,1.14-1.43,1.71-3.77,1.71-7,0-1.71-.15-3.19-.45-4.43-.3-1.24-.71-2.24-1.24-3.02-.52-.78-1.15-1.36-1.88-1.73s-1.54-.57-2.42-.57Z"/><path class="cls-1" d="m81.12,7.01c-2.19,3-3.96,5.63-5.33,7.89-1.36,2.26-2.43,4.42-3.19,6.48-.76,2.06-1.28,4.18-1.54,6.36-.27,2.18-.4,4.69-.4,7.53,0,.68.02,1.37.07,2.07.05.7.07,1.37.07,2.01,0,.84-.05,1.65-.14,2.43-.1.78-.28,1.47-.55,2.07-.27.6-.64,1.08-1.12,1.44-.48.36-1.09.54-1.85.54-1.43,0-2.49-.68-3.19-2.04-.7-1.36-1.05-3.18-1.05-5.46,0-2.8.33-5.45.98-7.95.65-2.5,1.54-4.86,2.66-7.08,1.12-2.22,2.44-4.29,3.95-6.21s3.12-3.7,4.83-5.34c-.76.48-1.48.8-2.16.96-.68.16-1.29.24-1.83.24-.92,0-1.76-.16-2.52-.48-.76-.32-1.48-.68-2.16-1.08-.68-.4-1.36-.76-2.02-1.08-.67-.32-1.35-.48-2.04-.48-.35,0-.7.07-1.05.21-.35.14-.67.39-.97.75-.3.36-.58.84-.83,1.44-.25.6-.44,1.36-.57,2.28h-2.09c-.06-.52-.1-1.08-.12-1.68-.02-.6-.02-1.14-.02-1.62,0-1.08.09-2.1.29-3.06s.51-1.8.95-2.52c.44-.72,1.03-1.29,1.76-1.71.73-.42,1.65-.63,2.76-.63,1.52,0,2.77.22,3.73.66.97.44,1.88.91,2.73,1.41.86.5,1.77.97,2.73,1.41.97.44,2.21.66,3.73.66.95,0,1.73-.26,2.33-.78.6-.52,1.2-1.36,1.81-2.52l1.38,2.88Z"/><path class="cls-1" d="m98.67,4.55c-.1,1.08-.17,2-.21,2.76-.05.76-.07,1.48-.07,2.16v29.58c0,1.72,1.68,2.58,5.04,2.58v3.42h-17.88v-3.42c3.93,0,5.9-.86,5.9-2.58V14.27h-6.32l-.19-3.24c4.44-.12,7.5-2.5,9.18-7.14l4.57.66Z"/></g><g><path class="cls-1" d="m124.89,24.58V6.96h6.95c1.82,0,3.23.42,4.23,1.27,1,.85,1.5,2.05,1.5,3.6,0,1-.23,1.85-.67,2.56-.45.71-1.08,1.25-1.88,1.62-.8.38-1.73.56-2.78.56l.48-.28h.35c.68,0,1.29.16,1.83.49.53.33.96.88,1.27,1.66l2.45,6.12h-1.7l-2.3-5.85c-.32-.85-.77-1.4-1.38-1.64-.6-.24-1.37-.36-2.3-.36h-4.5v7.85h-1.55Zm1.55-9.15h5.2c1.42,0,2.5-.31,3.24-.92.74-.62,1.11-1.5,1.11-2.65s-.37-2.05-1.11-2.66c-.74-.61-1.82-.91-3.24-.91h-5.2v7.15Z"/><path class="cls-1" d="m143.36,24.58V6.96h10.95v1.33h-9.45v6.7h8.9v1.33h-8.9v6.95h9.45v1.33h-10.95Z"/><path class="cls-1" d="m164.59,24.78c-1.42,0-2.67-.18-3.75-.55-1.08-.37-2.05-.9-2.9-1.6l.65-1.28c.6.47,1.19.85,1.76,1.15.57.3,1.2.52,1.89.66.68.14,1.46.21,2.33.21,1.55,0,2.72-.3,3.5-.91.78-.61,1.17-1.41,1.17-2.41,0-.87-.27-1.53-.81-1.99-.54-.46-1.49-.82-2.84-1.09l-2.55-.52c-1.62-.33-2.82-.87-3.61-1.6-.79-.73-1.19-1.73-1.19-3,0-1.03.27-1.93.8-2.7.53-.77,1.27-1.36,2.23-1.78.95-.42,2.05-.62,3.3-.62s2.39.19,3.41.56c1.03.38,1.9.93,2.64,1.66l-.62,1.25c-.78-.73-1.61-1.26-2.47-1.59-.87-.33-1.85-.49-2.95-.49-1.45,0-2.6.33-3.45.99-.85.66-1.27,1.55-1.27,2.66,0,.9.27,1.6.81,2.1s1.42.88,2.64,1.12l2.58.52c1.72.35,2.97.86,3.78,1.54.8.67,1.2,1.64,1.2,2.89,0,.95-.25,1.79-.76,2.51-.51.73-1.23,1.29-2.16,1.69-.93.4-2.04.6-3.33.6Z"/><path class="cls-1" d="m179.56,24.58V8.31h-6.4v-1.35h14.33v1.35h-6.38v16.28h-1.55Z"/><path class="cls-1" d="m187.86,24.58l7.67-17.62h1.4l7.8,17.62h-1.62l-2.2-5.08.72.38h-10.85l.85-.38-2.15,5.08h-1.62Zm8.35-15.75l-4.27,10.02-.58-.3h9.7l-.43.3-4.38-10.02h-.05Z"/><path class="cls-1" d="m215.66,24.78c-2.35,0-4.09-.6-5.21-1.8-1.12-1.2-1.69-2.95-1.69-5.25V6.96h1.55v10.65c0,1.92.42,3.36,1.27,4.33.85.97,2.21,1.45,4.08,1.45,1.73,0,3.05-.48,3.96-1.45.91-.97,1.36-2.41,1.36-4.33V6.96h1.55v10.77c0,2.3-.59,4.05-1.76,5.25-1.17,1.2-2.88,1.8-5.11,1.8Z"/><path class="cls-1" d="m228.31,24.58V6.96h6.95c1.82,0,3.23.42,4.23,1.27,1,.85,1.5,2.05,1.5,3.6,0,1-.23,1.85-.67,2.56-.45.71-1.08,1.25-1.88,1.62-.8.38-1.73.56-2.78.56l.47-.28h.35c.68,0,1.29.16,1.83.49.53.33.96.88,1.27,1.66l2.45,6.12h-1.7l-2.3-5.85c-.32-.85-.78-1.4-1.38-1.64-.6-.24-1.37-.36-2.3-.36h-4.5v7.85h-1.55Zm1.55-9.15h5.2c1.42,0,2.5-.31,3.24-.92.74-.62,1.11-1.5,1.11-2.65s-.37-2.05-1.11-2.66c-.74-.61-1.82-.91-3.24-.91h-5.2v7.15Z"/><path class="cls-1" d="m244.84,24.58l7.68-17.62h1.4l7.8,17.62h-1.62l-2.2-5.08.72.38h-10.85l.85-.38-2.15,5.08h-1.62Zm8.35-15.75l-4.28,10.02-.58-.3h9.7l-.42.3-4.38-10.02h-.05Z"/><path class="cls-1" d="m265.99,24.58V6.96h1.25l11.8,15.8h-.55V6.96h1.42v17.62h-1.22l-11.8-15.8h.52v15.8h-1.42Z"/><path class="cls-1" d="m290.16,24.58V8.31h-6.4v-1.35h14.33v1.35h-6.38v16.28h-1.55Z"/></g><line class="cls-2" x1="123.89" y1="35.62" x2="213.92" y2="35.62"/><g><path class="cls-1" d="m219.66,39.93v-7.05h4.79v1.21h-3.23v1.71h3v1.21h-3v2.92h-1.56Z"/><path class="cls-1" d="m225.44,39.93v-7.05h4.9v1.21h-3.41v1.65h3.18v1.21h-3.18v1.77h3.41v1.21h-4.9Z"/><path class="cls-1" d="m233.89,40.03c-.57,0-1.11-.07-1.6-.21s-.91-.33-1.26-.58l.46-1.21c.23.15.46.27.71.38s.52.18.8.24.58.08.88.08c.48,0,.82-.07,1.03-.21.2-.14.3-.33.3-.57,0-.21-.07-.36-.2-.47-.13-.11-.39-.2-.76-.27l-1.16-.24c-.65-.13-1.13-.36-1.46-.68-.32-.32-.49-.75-.49-1.29,0-.45.12-.84.37-1.17.24-.34.58-.6,1.02-.78.44-.18.95-.27,1.53-.27.5,0,.97.07,1.4.21.43.14.79.33,1.07.58l-.45,1.16c-.28-.23-.59-.39-.92-.5-.34-.11-.71-.16-1.12-.16-.43,0-.76.07-1,.22-.23.15-.34.36-.34.63,0,.2.07.36.21.49s.39.22.74.29l1.17.23c.65.13,1.14.36,1.46.67.32.31.49.73.49,1.25,0,.43-.12.82-.36,1.15s-.58.58-1,.76-.94.27-1.52.27Z"/><path class="cls-1" d="m239.39,39.93v-5.78h-2.23v-1.27h6.04v1.27h-2.24v5.78h-1.57Z"/><path class="cls-1" d="m252.76,40.03c-.31-.08-.6-.21-.89-.38-.29-.17-.56-.37-.81-.58h.3c-.31.31-.67.54-1.08.71-.41.17-.84.25-1.29.25-.53,0-1-.08-1.39-.25-.39-.16-.69-.39-.9-.69-.21-.29-.32-.64-.32-1.03,0-.45.13-.84.4-1.16s.63-.61,1.09-.87l.34-.19-.24.29c-.27-.26-.48-.53-.61-.8-.13-.27-.2-.55-.2-.84,0-.34.08-.64.25-.91.17-.26.41-.47.73-.61.32-.14.69-.21,1.11-.21.55,0,1,.14,1.35.43.34.29.51.68.51,1.17,0,.26-.05.5-.16.73s-.26.44-.48.63c-.22.2-.5.38-.85.56l.03-.28,1.65,1.63h-.31c.17-.27.31-.57.4-.92.09-.35.15-.71.17-1.1h1.25c-.03.55-.12,1.07-.28,1.56-.16.49-.38.92-.66,1.3v-.33c.19.18.39.33.62.46s.47.24.74.33l-.48,1.07Zm-3.67-1.14c.29,0,.56-.05.79-.16.23-.11.45-.27.64-.49l-.03.35-2.06-2.02h.62s-.27.15-.27.15c-.19.11-.36.23-.49.36s-.23.26-.29.41c-.07.14-.1.3-.1.47,0,.29.1.52.31.68.21.16.5.25.88.25Zm.18-5.12c-.23,0-.41.07-.54.2-.13.13-.2.31-.2.52,0,.11.02.22.06.33.04.11.12.22.21.34.1.12.23.26.38.42h-.34c.38-.18.66-.36.84-.54.18-.18.27-.38.27-.61s-.06-.39-.19-.5c-.13-.11-.29-.17-.5-.17Z"/><path class="cls-1" d="m256.66,39.93v-7.05h4.79v1.21h-3.23v1.71h3v1.21h-3v2.92h-1.56Z"/><path class="cls-1" d="m262.44,39.93v-7.05h1.56v7.05h-1.56Z"/><path class="cls-1" d="m265.43,39.93v-7.05h1.16l3.84,4.87h-.29v-4.87h1.46v7.05h-1.16l-3.83-4.87h.28v4.87h-1.46Z"/><path class="cls-1" d="m273.03,39.93v-7.05h4.9v1.21h-3.41v1.65h3.18v1.21h-3.18v1.77h3.41v1.21h-4.9Z"/><path class="cls-1" d="m281.48,40.03c-.57,0-1.11-.07-1.6-.21-.49-.14-.91-.33-1.26-.58l.46-1.21c.23.15.47.27.72.38s.52.18.8.24c.28.06.58.08.88.08.48,0,.82-.07,1.03-.21.2-.14.3-.33.3-.57,0-.21-.07-.36-.2-.47s-.39-.2-.76-.27l-1.16-.24c-.65-.13-1.13-.36-1.46-.68s-.49-.75-.49-1.29c0-.45.12-.84.37-1.17s.58-.6,1.02-.78c.44-.18.94-.27,1.52-.27.5,0,.97.07,1.4.21.43.14.79.33,1.07.58l-.45,1.16c-.28-.23-.59-.39-.92-.5-.34-.11-.71-.16-1.12-.16-.43,0-.77.07-1,.22-.23.15-.35.36-.35.63,0,.2.07.36.21.49.14.13.39.22.74.29l1.17.23c.65.13,1.14.36,1.46.67.32.31.49.73.49,1.25,0,.43-.12.82-.36,1.15-.24.33-.57.58-1,.76-.43.18-.93.27-1.51.27Z"/><path class="cls-1" d="m288.06,40.03c-.57,0-1.11-.07-1.6-.21-.49-.14-.91-.33-1.26-.58l.46-1.21c.23.15.47.27.72.38s.52.18.8.24c.28.06.58.08.88.08.48,0,.82-.07,1.03-.21.2-.14.3-.33.3-.57,0-.21-.07-.36-.2-.47s-.39-.2-.76-.27l-1.16-.24c-.65-.13-1.13-.36-1.46-.68s-.49-.75-.49-1.29c0-.45.12-.84.37-1.17s.58-.6,1.02-.78c.44-.18.94-.27,1.52-.27.5,0,.97.07,1.4.21.43.14.79.33,1.07.58l-.45,1.16c-.28-.23-.59-.39-.92-.5-.34-.11-.71-.16-1.12-.16-.43,0-.77.07-1,.22-.23.15-.35.36-.35.63,0,.2.07.36.21.49.14.13.39.22.74.29l1.17.23c.65.13,1.14.36,1.46.67.32.31.49.73.49,1.25,0,.43-.12.82-.36,1.15-.24.33-.57.58-1,.76-.43.18-.93.27-1.51.27Z"/><path class="cls-1" d="m292.08,39.93v-7.05h4.9v1.21h-3.41v1.65h3.18v1.21h-3.18v1.77h3.41v1.21h-4.9Z"/></g></svg>