<?xml version="1.0" encoding="UTF-8"?><svg id="Lag_1" xmlns="http://www.w3.org/2000/svg" viewBox="0 0 303.13 303.14"><defs><style>.cls-1,.cls-2{fill:#1d1d1b;}.cls-3{fill:none;}.cls-3,.cls-2{stroke:#1d1d1b;stroke-miterlimit:10;}.cls-2{stroke-width:.75px;}</style></defs><rect class="cls-3" x="6.99" y="7" width="289.15" height="289.15"/><g><path class="cls-1" d="m24.77,124.27v-26.79h10.56c2.76,0,4.9.65,6.42,1.94s2.28,3.12,2.28,5.47c0,1.52-.34,2.82-1.03,3.9s-1.63,1.9-2.85,2.47c-1.22.57-2.62.85-4.22.85l.72-.42h.53c1.04,0,1.96.25,2.77.74.81.49,1.46,1.34,1.94,2.53l3.72,9.31h-2.58l-3.5-8.89c-.48-1.29-1.18-2.12-2.09-2.49s-2.08-.55-3.5-.55h-6.84v11.93h-2.36Zm2.36-13.91h7.9c2.15,0,3.79-.47,4.92-1.41,1.13-.94,1.69-2.28,1.69-4.03s-.56-3.12-1.69-4.05c-1.13-.92-2.77-1.39-4.92-1.39h-7.9v10.87Z"/><path class="cls-1" d="m52.86,124.27v-26.79h16.64v2.01h-14.36v10.18h13.53v2.01h-13.53v10.56h14.36v2.01h-16.64Z"/><path class="cls-1" d="m85.12,124.57c-2.15,0-4.05-.28-5.7-.84-1.65-.56-3.12-1.37-4.41-2.43l.99-1.94c.91.71,1.8,1.29,2.68,1.75.87.46,1.83.79,2.87,1.01,1.04.21,2.22.32,3.53.32,2.36,0,4.13-.46,5.32-1.39,1.19-.92,1.79-2.15,1.79-3.67,0-1.32-.41-2.32-1.24-3.02-.82-.7-2.26-1.25-4.31-1.65l-3.88-.8c-2.46-.51-4.29-1.32-5.49-2.43-1.2-1.11-1.81-2.63-1.81-4.56,0-1.57.4-2.94,1.22-4.1.81-1.17,1.94-2.06,3.38-2.7,1.44-.63,3.12-.95,5.02-.95s3.63.29,5.19.86c1.56.57,2.89,1.41,4.01,2.53l-.95,1.9c-1.19-1.11-2.44-1.92-3.76-2.41-1.32-.49-2.81-.74-4.48-.74-2.2,0-3.95.5-5.24,1.5-1.29,1-1.94,2.35-1.94,4.05,0,1.37.41,2.43,1.23,3.19.82.76,2.16,1.33,4.01,1.71l3.91.8c2.61.53,4.52,1.31,5.74,2.34,1.22,1.03,1.82,2.49,1.82,4.39,0,1.44-.39,2.72-1.16,3.82-.77,1.1-1.87,1.96-3.29,2.57-1.42.61-3.1.91-5.05.91Z"/><path class="cls-1" d="m107.88,124.27v-24.74h-9.73v-2.05h21.77v2.05h-9.69v24.74h-2.36Z"/><path class="cls-1" d="m120.5,124.27l11.67-26.79h2.13l11.86,26.79h-2.47l-3.34-7.71,1.1.57h-16.49l1.29-.57-3.27,7.71h-2.47Zm12.69-23.94l-6.5,15.24-.87-.46h14.74l-.65.46-6.65-15.24h-.08Z"/><path class="cls-1" d="m162.75,124.57c-3.57,0-6.21-.91-7.92-2.74s-2.56-4.48-2.56-7.98v-16.38h2.36v16.19c0,2.91.65,5.1,1.94,6.57,1.29,1.47,3.36,2.2,6.19,2.2,2.63,0,4.64-.73,6.02-2.2,1.38-1.47,2.07-3.66,2.07-6.57v-16.19h2.36v16.38c0,3.5-.89,6.16-2.68,7.98s-4.38,2.74-7.77,2.74Z"/><path class="cls-1" d="m181.98,124.27v-26.79h10.56c2.76,0,4.9.65,6.42,1.94s2.28,3.12,2.28,5.47c0,1.52-.34,2.82-1.03,3.9s-1.63,1.9-2.85,2.47c-1.22.57-2.62.85-4.22.85l.72-.42h.53c1.04,0,1.96.25,2.77.74.81.49,1.46,1.34,1.94,2.53l3.72,9.31h-2.58l-3.5-8.89c-.48-1.29-1.18-2.12-2.09-2.49s-2.08-.55-3.5-.55h-6.84v11.93h-2.36Zm2.36-13.91h7.9c2.15,0,3.79-.47,4.92-1.41,1.13-.94,1.69-2.28,1.69-4.03s-.56-3.12-1.69-4.05c-1.13-.92-2.77-1.39-4.92-1.39h-7.9v10.87Z"/><path class="cls-1" d="m207.1,124.27l11.67-26.79h2.13l11.86,26.79h-2.47l-3.34-7.71,1.1.57h-16.49l1.29-.57-3.27,7.71h-2.47Zm12.69-23.94l-6.5,15.24-.87-.46h14.74l-.65.46-6.65-15.24h-.08Z"/><path class="cls-1" d="m239.25,124.27v-26.79h1.9l17.94,24.02h-.84v-24.02h2.17v26.79h-1.86l-17.94-24.02h.8v24.02h-2.17Z"/><path class="cls-1" d="m275.99,124.27v-24.74h-9.73v-2.05h21.77v2.05h-9.69v24.74h-2.36Z"/></g><line class="cls-2" x1="40.8" y1="138.71" x2="268.96" y2="138.71"/><g><path class="cls-1" d="m98.99,153.28c-.14,1.62-.25,3-.32,4.14-.07,1.14-.11,2.22-.11,3.24v44.37c0,2.58,2.52,3.87,7.56,3.87v5.13h-26.82v-5.13c5.9,0,8.84-1.29,8.84-3.87v-37.17h-9.49l-.29-4.86c6.66-.18,11.25-3.75,13.77-10.71l6.85.99Z"/><path class="cls-1" d="m121.24,205.66c.71,1.38,1.94,2.48,3.67,3.29,1.74.81,3.77,1.21,6.1,1.21,1.9,0,3.58-.39,5.03-1.17,1.45-.78,2.66-2.13,3.64-4.05.97-1.92,1.7-4.51,2.18-7.79.47-3.27.71-7.42.71-12.46-2.52,5.1-7.01,7.65-13.48,7.65-2.43,0-4.58-.48-6.46-1.44-1.88-.96-3.47-2.29-4.78-4-1.31-1.71-2.29-3.69-2.96-5.94-.67-2.25-1-4.69-1-7.33s.29-5.31.86-7.83c.57-2.52,1.58-4.75,3.03-6.71,1.45-1.95,3.44-3.51,5.96-4.68,2.52-1.17,5.75-1.75,9.7-1.75,3.09,0,5.82.57,8.2,1.71,2.38,1.14,4.39,2.99,6.03,5.54,1.64,2.55,2.88,5.87,3.71,9.94.83,4.08,1.25,9.09,1.25,15.03,0,3.96-.37,7.79-1.11,11.48-.74,3.69-1.94,6.96-3.6,9.81-1.67,2.85-3.83,5.12-6.49,6.79-2.66,1.68-5.95,2.52-9.84,2.52-2.43,0-4.68-.38-6.78-1.12-2.09-.75-3.91-1.77-5.46-3.06-1.55-1.29-2.76-2.82-3.64-4.59-.88-1.77-1.32-3.67-1.32-5.71s.43-3.67,1.28-4.91c.86-1.23,2.12-1.84,3.78-1.84s2.95.6,3.85,1.8c.9,1.2,1.35,2.7,1.35,4.5,0,1.38-.35,2.55-1.03,3.51-.69.96-1.49,1.5-2.39,1.62Zm11.7-47.88c-2.62,0-4.81,1.15-6.6,3.45s-2.67,5.94-2.67,10.9c0,2.51.24,4.65.71,6.41.47,1.77,1.13,3.21,1.96,4.35.83,1.14,1.81,1.96,2.92,2.47,1.12.51,2.32.76,3.6.76,2.61,0,4.78-1.08,6.49-3.23,1.71-2.15,2.57-5.65,2.57-10.5,0-2.57-.23-4.78-.68-6.64-.45-1.85-1.07-3.36-1.85-4.53-.78-1.17-1.72-2.03-2.82-2.6-1.09-.57-2.31-.85-3.64-.85Z"/><path class="cls-1" d="m196.13,156.97c-3.28,4.5-5.94,8.45-7.99,11.83-2.05,3.39-3.64,6.63-4.78,9.72-1.14,3.09-1.91,6.27-2.32,9.54-.4,3.27-.61,7.04-.61,11.29,0,1.02.04,2.06.11,3.1.07,1.05.11,2.06.11,3.02,0,1.26-.07,2.47-.21,3.64s-.42,2.21-.82,3.11c-.4.9-.96,1.62-1.68,2.16s-1.64.81-2.78.81c-2.14,0-3.73-1.02-4.78-3.06-1.05-2.04-1.57-4.77-1.57-8.19,0-4.2.49-8.17,1.46-11.92.97-3.75,2.31-7.29,3.99-10.62,1.69-3.33,3.66-6.43,5.92-9.32,2.26-2.88,4.67-5.55,7.24-8.01-1.14.72-2.22,1.2-3.25,1.44-1.02.24-1.94.36-2.75.36-1.38,0-2.64-.24-3.78-.72-1.14-.48-2.22-1.02-3.25-1.62-1.02-.6-2.03-1.14-3.03-1.62-1-.48-2.02-.72-3.07-.72-.52,0-1.05.11-1.57.32-.52.21-1.01.58-1.46,1.12-.45.54-.87,1.26-1.25,2.16-.38.9-.67,2.04-.86,3.42h-3.14c-.1-.78-.15-1.62-.18-2.52-.02-.9-.04-1.71-.04-2.43,0-1.62.14-3.15.43-4.59.29-1.44.76-2.7,1.43-3.78.67-1.08,1.54-1.94,2.64-2.57,1.09-.63,2.47-.94,4.14-.94,2.28,0,4.15.33,5.6.99,1.45.66,2.82,1.37,4.1,2.12,1.28.75,2.65,1.46,4.1,2.12,1.45.66,3.32.99,5.6.99,1.43,0,2.59-.39,3.5-1.17.9-.78,1.81-2.04,2.71-3.78l2.07,4.32Z"/><path class="cls-1" d="m222.45,153.28c-.14,1.62-.25,3-.32,4.14-.07,1.14-.11,2.22-.11,3.24v44.37c0,2.58,2.52,3.87,7.56,3.87v5.13h-26.82v-5.13c5.9,0,8.84-1.29,8.84-3.87v-37.17h-9.49l-.29-4.86c6.66-.18,11.25-3.75,13.77-10.71l6.85.99Z"/></g></svg>