<?xml version="1.0" encoding="UTF-8"?><svg id="Lag_1" xmlns="http://www.w3.org/2000/svg" viewBox="0 0 303.13 303.14"><defs><style>.cls-1{fill:#fff;}.cls-2{fill:none;stroke:#fff;stroke-miterlimit:10;}</style></defs><circle class="cls-2" cx="151.57" cy="151.57" r="144.34"/><g><path class="cls-1" d="m46.57,127.92v-21.85h8.62c2.25,0,4,.53,5.24,1.58,1.24,1.05,1.86,2.54,1.86,4.46,0,1.24-.28,2.3-.84,3.18-.56.88-1.33,1.55-2.33,2.01-.99.47-2.14.7-3.44.7l.59-.34h.43c.85,0,1.6.2,2.26.6.66.4,1.19,1.09,1.58,2.06l3.04,7.59h-2.11l-2.85-7.25c-.39-1.05-.96-1.73-1.71-2.03-.74-.3-1.69-.45-2.85-.45h-5.58v9.73h-1.92Zm1.92-11.35h6.45c1.76,0,3.09-.38,4.01-1.15.92-.76,1.38-1.86,1.38-3.29s-.46-2.55-1.38-3.3c-.92-.75-2.26-1.13-4.01-1.13h-6.45v8.87Z"/><path class="cls-1" d="m69.48,127.92v-21.85h13.58v1.64h-11.72v8.31h11.04v1.64h-11.04v8.62h11.72v1.64h-13.58Z"/><path class="cls-1" d="m95.79,128.16c-1.76,0-3.31-.23-4.65-.68-1.34-.45-2.54-1.12-3.6-1.98l.81-1.58c.74.58,1.47,1.05,2.19,1.43.71.37,1.49.65,2.34.82.85.18,1.81.26,2.88.26,1.92,0,3.37-.38,4.34-1.13.97-.75,1.46-1.75,1.46-2.99,0-1.08-.34-1.9-1.01-2.46-.67-.57-1.84-1.02-3.52-1.35l-3.16-.65c-2-.41-3.5-1.07-4.48-1.98-.98-.91-1.47-2.15-1.47-3.72,0-1.28.33-2.4.99-3.35.66-.95,1.58-1.68,2.76-2.2,1.18-.52,2.54-.77,4.09-.77s2.96.23,4.23.7,2.36,1.15,3.27,2.06l-.77,1.55c-.97-.91-1.99-1.57-3.07-1.97-1.07-.4-2.29-.6-3.66-.6-1.8,0-3.22.41-4.28,1.22-1.05.82-1.58,1.92-1.58,3.3,0,1.12.34,1.98,1.01,2.6.67.62,1.76,1.09,3.27,1.4l3.19.65c2.13.43,3.69,1.07,4.68,1.91.99.84,1.49,2.03,1.49,3.58,0,1.18-.32,2.22-.95,3.12-.63.9-1.52,1.6-2.68,2.09-1.16.5-2.53.74-4.12.74Z"/><path class="cls-1" d="m114.36,127.92v-20.18h-7.94v-1.67h17.76v1.67h-7.91v20.18h-1.92Z"/><path class="cls-1" d="m124.66,127.92l9.52-21.85h1.74l9.67,21.85h-2.02l-2.73-6.29.9.46h-13.45l1.05-.46-2.67,6.29h-2.01Zm10.35-19.53l-5.3,12.43-.71-.37h12.03l-.53.37-5.42-12.43h-.06Z"/><path class="cls-1" d="m159.13,128.16c-2.91,0-5.07-.74-6.46-2.23-1.4-1.49-2.09-3.66-2.09-6.51v-13.36h1.92v13.21c0,2.38.53,4.17,1.58,5.36,1.05,1.2,2.74,1.8,5.05,1.8,2.15,0,3.79-.6,4.91-1.8,1.13-1.2,1.69-2.99,1.69-5.36v-13.21h1.92v13.36c0,2.85-.73,5.02-2.19,6.51-1.46,1.49-3.57,2.23-6.34,2.23Z"/><path class="cls-1" d="m174.81,127.92v-21.85h8.62c2.25,0,4,.53,5.24,1.58,1.24,1.05,1.86,2.54,1.86,4.46,0,1.24-.28,2.3-.84,3.18-.56.88-1.33,1.55-2.33,2.01-.99.47-2.14.7-3.44.7l.59-.34h.43c.85,0,1.6.2,2.26.6.66.4,1.19,1.09,1.58,2.06l3.04,7.59h-2.11l-2.85-7.25c-.39-1.05-.96-1.73-1.71-2.03-.74-.3-1.69-.45-2.85-.45h-5.58v9.73h-1.92Zm1.92-11.35h6.45c1.76,0,3.09-.38,4.01-1.15.92-.76,1.38-1.86,1.38-3.29s-.46-2.55-1.38-3.3c-.92-.75-2.26-1.13-4.01-1.13h-6.45v8.87Z"/><path class="cls-1" d="m195.3,127.92l9.52-21.85h1.74l9.67,21.85h-2.02l-2.73-6.29.9.46h-13.45l1.05-.46-2.67,6.29h-2.01Zm10.35-19.53l-5.3,12.43-.71-.37h12.03l-.53.37-5.42-12.43h-.06Z"/><path class="cls-1" d="m221.53,127.92v-21.85h1.55l14.63,19.59h-.68v-19.59h1.77v21.85h-1.52l-14.63-19.59h.65v19.59h-1.77Z"/><path class="cls-1" d="m251.51,127.92v-20.18h-7.94v-1.67h17.76v1.67h-7.91v20.18h-1.92Z"/></g><g><path class="cls-1" d="m98.99,153.26c-.14,1.62-.25,3-.32,4.14-.07,1.14-.11,2.22-.11,3.24v44.37c0,2.58,2.52,3.87,7.56,3.87v5.13h-26.82v-5.13c5.9,0,8.84-1.29,8.84-3.87v-37.17h-9.49l-.29-4.86c6.66-.18,11.25-3.75,13.77-10.71l6.85.99Z"/><path class="cls-1" d="m121.24,205.64c.71,1.38,1.94,2.48,3.67,3.29,1.74.81,3.77,1.21,6.1,1.21,1.9,0,3.58-.39,5.03-1.17,1.45-.78,2.66-2.13,3.64-4.05.97-1.92,1.7-4.51,2.18-7.79.47-3.27.71-7.42.71-12.46-2.52,5.1-7.01,7.65-13.48,7.65-2.43,0-4.58-.48-6.46-1.44-1.88-.96-3.47-2.29-4.78-4-1.31-1.71-2.29-3.69-2.96-5.94-.67-2.25-1-4.69-1-7.33s.29-5.31.86-7.83c.57-2.52,1.58-4.75,3.03-6.71,1.45-1.95,3.44-3.51,5.96-4.68,2.52-1.17,5.75-1.75,9.7-1.75,3.09,0,5.82.57,8.2,1.71,2.38,1.14,4.39,2.99,6.03,5.54,1.64,2.55,2.88,5.87,3.71,9.94.83,4.08,1.25,9.09,1.25,15.03,0,3.96-.37,7.79-1.11,11.48-.74,3.69-1.94,6.96-3.6,9.81-1.67,2.85-3.83,5.12-6.49,6.79-2.66,1.68-5.95,2.52-9.84,2.52-2.43,0-4.68-.38-6.78-1.12-2.09-.75-3.91-1.77-5.46-3.06-1.55-1.29-2.76-2.82-3.64-4.59-.88-1.77-1.32-3.67-1.32-5.71s.43-3.67,1.28-4.91c.86-1.23,2.12-1.84,3.78-1.84s2.95.6,3.85,1.8c.9,1.2,1.35,2.7,1.35,4.5,0,1.38-.35,2.55-1.03,3.51-.69.96-1.49,1.5-2.39,1.62Zm11.7-47.88c-2.62,0-4.81,1.15-6.6,3.45s-2.67,5.94-2.67,10.9c0,2.51.24,4.65.71,6.41.47,1.77,1.13,3.21,1.96,4.35.83,1.14,1.81,1.96,2.92,2.47,1.12.51,2.32.76,3.6.76,2.61,0,4.78-1.08,6.49-3.23,1.71-2.15,2.57-5.65,2.57-10.5,0-2.57-.23-4.78-.68-6.64-.45-1.85-1.07-3.36-1.85-4.53-.78-1.17-1.72-2.03-2.82-2.6-1.09-.57-2.31-.85-3.64-.85Z"/><path class="cls-1" d="m196.13,156.95c-3.28,4.5-5.94,8.45-7.99,11.83-2.05,3.39-3.64,6.63-4.78,9.72-1.14,3.09-1.91,6.27-2.32,9.54-.4,3.27-.61,7.04-.61,11.29,0,1.02.04,2.06.11,3.1.07,1.05.11,2.06.11,3.02,0,1.26-.07,2.47-.21,3.64s-.42,2.21-.82,3.11c-.4.9-.96,1.62-1.68,2.16s-1.64.81-2.78.81c-2.14,0-3.73-1.02-4.78-3.06-1.05-2.04-1.57-4.77-1.57-8.19,0-4.2.49-8.17,1.46-11.92.97-3.75,2.31-7.29,3.99-10.62,1.69-3.33,3.66-6.43,5.92-9.32,2.26-2.88,4.67-5.55,7.24-8.01-1.14.72-2.22,1.2-3.25,1.44-1.02.24-1.94.36-2.75.36-1.38,0-2.64-.24-3.78-.72-1.14-.48-2.22-1.02-3.25-1.62-1.02-.6-2.03-1.14-3.03-1.62-1-.48-2.02-.72-3.07-.72-.52,0-1.05.11-1.57.32-.52.21-1.01.58-1.46,1.12-.45.54-.87,1.26-1.25,2.16-.38.9-.67,2.04-.86,3.42h-3.14c-.1-.78-.15-1.62-.18-2.52-.02-.9-.04-1.71-.04-2.43,0-1.62.14-3.15.43-4.59.29-1.44.76-2.7,1.43-3.78.67-1.08,1.54-1.94,2.64-2.57,1.09-.63,2.47-.94,4.14-.94,2.28,0,4.15.33,5.6.99,1.45.66,2.82,1.37,4.1,2.12,1.28.75,2.65,1.46,4.1,2.12,1.45.66,3.32.99,5.6.99,1.43,0,2.59-.39,3.5-1.17.9-.78,1.81-2.04,2.71-3.78l2.07,4.32Z"/><path class="cls-1" d="m222.45,153.26c-.14,1.62-.25,3-.32,4.14-.07,1.14-.11,2.22-.11,3.24v44.37c0,2.58,2.52,3.87,7.56,3.87v5.13h-26.82v-5.13c5.9,0,8.84-1.29,8.84-3.87v-37.17h-9.49l-.29-4.86c6.66-.18,11.25-3.75,13.77-10.71l6.85.99Z"/></g></svg>