<?xml version="1.0" encoding="UTF-8"?>
<svg id="Lag_1" data-name="Lag 1" xmlns="http://www.w3.org/2000/svg" viewBox="0 0 251 133">
  <defs>
    <style>
      .cls-1 {
        fill: #223e29;
        stroke-width: 0px;
      }
    </style>
  </defs>
  <path class="cls-1" d="m44.36,17.56c-.2,2.53-.36,4.68-.45,6.46s-.16,3.46-.16,5.05v69.22c0,4.02,3.58,6.04,10.74,6.04v8H16.4v-8c8.38,0,12.55-2.01,12.55-6.04v-57.99h-13.48l-.41-7.58c9.46-.28,15.98-5.85,19.56-16.71l9.73,1.54h.01Z"/>
  <path class="cls-1" d="m75.96,99.28c1.01,2.15,2.76,3.87,5.21,5.13,2.47,1.26,5.35,1.89,8.66,1.89,2.7,0,5.08-.61,7.14-1.83s3.78-3.32,5.17-6.32c1.38-3,2.41-7.04,3.1-12.15.67-5.1,1.01-11.58,1.01-19.44-3.58,7.96-9.96,11.93-19.14,11.93-3.45,0-6.5-.75-9.17-2.25s-4.93-3.57-6.79-6.24-3.25-5.76-4.2-9.27-1.42-7.32-1.42-11.44.41-8.28,1.22-12.22,2.24-7.41,4.3-10.47c2.06-3.04,4.89-5.48,8.46-7.3s8.17-2.73,13.78-2.73c4.39,0,8.27.89,11.65,2.67,3.38,1.78,6.23,4.66,8.56,8.64,2.33,3.98,4.09,9.16,5.27,15.51,1.18,6.37,1.78,14.18,1.78,23.45,0,6.18-.53,12.15-1.58,17.91s-2.76,10.86-5.11,15.3c-2.37,4.45-5.44,7.99-9.22,10.59-3.78,2.62-8.45,3.93-13.97,3.93-3.45,0-6.65-.59-9.63-1.75-2.97-1.17-5.55-2.76-7.75-4.77-2.2-2.01-3.92-4.4-5.17-7.16-1.25-2.76-1.87-5.73-1.87-8.91s.61-5.73,1.82-7.66c1.22-1.92,3.01-2.87,5.37-2.87s4.19.94,5.47,2.81,1.92,4.21,1.92,7.02c0,2.15-.5,3.98-1.46,5.48-.98,1.5-2.12,2.34-3.39,2.53v-.03Zm16.62-74.7c-3.72,0-6.83,1.79-9.37,5.38-2.54,3.59-3.79,9.27-3.79,17,0,3.92.34,7.25,1.01,10,.67,2.76,1.6,5.01,2.78,6.79s2.57,3.06,4.15,3.85c1.59.8,3.29,1.19,5.11,1.19,3.71,0,6.79-1.68,9.22-5.04s3.65-8.81,3.65-16.38c0-4.01-.33-7.46-.97-10.36-.64-2.89-1.52-5.24-2.63-7.07s-2.44-3.17-4-4.06c-1.55-.89-3.28-1.33-5.17-1.33v.02Z"/>
  <path class="cls-1" d="m182.32,23.32c-4.66,7.02-8.45,13.18-11.35,18.46-2.9,5.29-5.17,10.34-6.79,15.16s-2.71,9.78-3.29,14.88c-.57,5.1-.87,10.98-.87,17.61,0,1.59.06,3.21.16,4.84.1,1.64.16,3.21.16,4.71,0,1.97-.1,3.85-.3,5.68s-.6,3.45-1.16,4.85c-.57,1.4-1.36,2.53-2.39,3.37s-2.33,1.26-3.95,1.26c-3.04,0-5.3-1.59-6.79-4.77-1.49-3.18-2.23-7.44-2.23-12.78,0-6.55.7-12.75,2.07-18.6,1.38-5.85,3.28-11.37,5.67-16.57,2.4-5.2,5.2-10.03,8.41-14.54,3.21-4.49,6.63-8.66,10.28-12.5-1.62,1.12-3.15,1.87-4.62,2.25-1.45.37-2.76.56-3.91.56-1.96,0-3.75-.37-5.37-1.12s-3.15-1.59-4.62-2.53c-1.45-.94-2.88-1.78-4.3-2.53s-2.87-1.12-4.36-1.12c-.74,0-1.49.17-2.23.5s-1.43.9-2.07,1.75c-.64.84-1.24,1.97-1.78,3.37-.54,1.4-.95,3.18-1.22,5.34h-4.46c-.14-1.22-.21-2.53-.26-3.93-.03-1.4-.06-2.67-.06-3.79,0-2.53.2-4.91.61-7.16s1.08-4.21,2.03-5.9,2.19-3.03,3.75-4.01c1.55-.98,3.51-1.47,5.88-1.47,3.24,0,5.89.51,7.95,1.54,2.06,1.03,4,2.14,5.82,3.31s3.76,2.28,5.82,3.31c2.06,1.03,4.72,1.54,7.95,1.54,2.03,0,3.68-.61,4.97-1.83,1.28-1.22,2.57-3.18,3.85-5.9l2.94,6.74h.03Z"/>
  <path class="cls-1" d="m219.69,17.56c-.2,2.53-.36,4.68-.45,6.46s-.16,3.46-.16,5.05v69.22c0,4.02,3.58,6.04,10.74,6.04v8h-38.09v-8c8.38,0,12.55-2.01,12.55-6.04v-57.99h-13.48l-.41-7.58c9.46-.28,15.98-5.85,19.56-16.71l9.73,1.54h.01Z"/>
</svg>