<?xml version="1.0" encoding="UTF-8"?>
<svg id="Lag_1" data-name="Lag 1" xmlns="http://www.w3.org/2000/svg" viewBox="0 0 528 234">
  <defs>
    <style>
      .cls-1 {
        fill: #223e29;
        stroke-width: 0px;
      }
    </style>
  </defs>
  <path class="cls-1" d="m81.9,20.6c-.45,5.12-.81,9.47-1.04,13.07-.23,3.6-.36,7.01-.36,10.23v140.1c0,8.15,8.16,12.22,24.49,12.22v16.2H18.11v-16.2c19.12,0,28.64-4.07,28.64-12.22v-117.37H16l-.94-15.35c21.58-.57,36.45-11.84,44.61-33.82l22.19,3.13h.03Z"/>
  <path class="cls-1" d="m153.99,185.99c2.3,4.36,6.29,7.83,11.89,10.39,5.64,2.56,12.21,3.82,19.76,3.82,6.16,0,11.6-1.23,16.3-3.69s8.62-6.73,11.79-12.79c3.14-6.06,5.51-14.24,7.06-24.6,1.52-10.33,2.3-23.43,2.3-39.34-8.16,16.1-22.71,24.16-43.67,24.16-7.87,0-14.84-1.52-20.93-4.55-6.09-3.03-11.24-7.23-15.49-12.63-4.24-5.4-7.42-11.65-9.59-18.76-2.17-7.1-3.24-14.81-3.24-23.15s.94-16.77,2.79-24.72,5.12-15,9.82-21.19c4.7-6.16,11.15-11.08,19.31-14.78s18.63-5.53,31.43-5.53c10.01,0,18.86,1.8,26.57,5.4,7.71,3.6,14.22,9.44,19.54,17.49,5.31,8.05,9.33,18.54,12.02,31.39,2.69,12.88,4.05,28.7,4.05,47.46,0,12.5-1.2,24.6-3.6,36.25-2.4,11.65-6.29,21.98-11.66,30.98-5.41,9-12.41,16.17-21.03,21.44-8.62,5.3-19.28,7.96-31.88,7.96-7.87,0-15.16-1.2-21.97-3.54-6.77-2.37-12.67-5.59-17.69-9.66-5.02-4.07-8.94-8.9-11.79-14.49-2.85-5.59-4.28-11.59-4.28-18.03s1.39-11.59,4.15-15.5c2.79-3.88,6.87-5.81,12.25-5.81s9.56,1.89,12.47,5.68,4.37,8.53,4.37,14.21c0,4.36-1.13,8.05-3.34,11.08-2.24,3.03-4.83,4.74-7.74,5.12l.03-.06Zm37.91-151.19c-8.49,0-15.58,3.63-21.38,10.89-5.8,7.26-8.65,18.76-8.65,34.42,0,7.93.78,14.68,2.3,20.24,1.52,5.59,3.66,10.14,6.35,13.74,2.69,3.6,5.86,6.19,9.46,7.8,3.63,1.61,7.52,2.4,11.66,2.4,8.46,0,15.49-3.41,21.03-10.2s8.33-17.84,8.33-33.16c0-8.12-.75-15.09-2.2-20.97-1.46-5.84-3.47-10.61-5.99-14.3s-5.57-6.41-9.14-8.21c-3.53-1.8-7.48-2.68-11.79-2.68l.03.03Z"/>
  <path class="cls-1" d="m396.62,32.25c-10.63,14.21-19.28,26.68-25.89,37.35-6.61,10.7-11.79,20.94-15.49,30.69-3.69,9.76-6.19,19.8-7.52,30.12-1.3,10.33-1.98,22.23-1.98,35.65,0,3.22.13,6.5.36,9.79.23,3.32.36,6.5.36,9.54,0,3.98-.23,7.8-.68,11.49-.45,3.69-1.36,6.98-2.66,9.82-1.3,2.84-3.11,5.12-5.44,6.82-2.33,1.71-5.31,2.56-9.01,2.56-6.93,0-12.08-3.22-15.49-9.66-3.4-6.44-5.09-15.06-5.09-25.86,0-13.26,1.59-25.8,4.73-37.64,3.14-11.84,7.48-23.02,12.93-33.53,5.48-10.51,11.86-20.3,19.18-29.43,7.32-9.09,15.13-17.52,23.46-25.29-3.69,2.27-7.19,3.79-10.53,4.55-3.3.76-6.29,1.14-8.91,1.14-4.47,0-8.55-.76-12.25-2.27-3.69-1.52-7.19-3.22-10.53-5.12-3.3-1.89-6.58-3.6-9.82-5.12-3.24-1.52-6.54-2.27-9.95-2.27-1.68,0-3.4.35-5.09,1.01s-3.27,1.83-4.73,3.54c-1.46,1.71-2.82,3.98-4.05,6.82-1.23,2.84-2.17,6.44-2.79,10.8h-10.17c-.32-2.46-.49-5.12-.58-7.96-.06-2.84-.13-5.4-.13-7.67,0-5.12.45-9.95,1.39-14.49s2.46-8.53,4.63-11.94c2.17-3.41,4.99-6.13,8.55-8.12,3.53-1.99,8-2.97,13.41-2.97,7.39,0,13.45,1.04,18.14,3.13,4.7,2.08,9.14,4.33,13.28,6.69,4.15,2.37,8.59,4.61,13.28,6.69,4.7,2.08,10.76,3.13,18.14,3.13,4.63,0,8.39-1.23,11.34-3.69,2.92-2.46,5.86-6.44,8.78-11.94l6.71,13.64h.06Z"/>
  <path class="cls-1" d="m481.9,20.6c-.45,5.12-.81,9.47-1.04,13.07-.23,3.6-.36,7.01-.36,10.23v140.1c0,8.15,8.16,12.22,24.49,12.22v16.2h-86.89v-16.2c19.12,0,28.64-4.07,28.64-12.22v-117.37h-30.75l-.94-15.35c21.58-.57,36.45-11.84,44.61-33.82l22.19,3.13h.03Z"/>
</svg>