<?xml version="1.0" encoding="UTF-8"?><svg id="Lag_1" xmlns="http://www.w3.org/2000/svg" viewBox="0 0 303.13 303.14"><defs><style>.cls-1,.cls-2{fill:#fff;}.cls-2{stroke-width:2px;}.cls-2,.cls-3{stroke:#fff;stroke-miterlimit:10;}.cls-3{fill:none;stroke-width:4px;}</style></defs><rect class="cls-3" x="6.99" y="6.1" width="289.15" height="289.15"/><g><path class="cls-1" d="m36.24,126.96v-23.97h10.13c2.56,0,4.54.61,5.95,1.82,1.41,1.21,2.11,2.91,2.11,5.08,0,1.43-.32,2.65-.95,3.67-.63,1.02-1.53,1.8-2.69,2.33-1.16.53-2.52.8-4.08.8l.54-.54h.92c.93,0,1.76.24,2.5.71.74.48,1.34,1.24,1.82,2.28l3.43,7.82h-3.88l-3.4-7.85c-.34-.93-.87-1.53-1.58-1.8s-1.59-.41-2.63-.41h-4.66v10.06h-3.54Zm3.54-12.75h6.02c1.7,0,2.99-.36,3.86-1.09.87-.73,1.31-1.77,1.31-3.13s-.44-2.43-1.31-3.13c-.87-.7-2.16-1.05-3.86-1.05h-6.02v8.4Z"/><path class="cls-1" d="m61.67,126.96v-23.97h15.71v2.82h-12.27v7.55h11.49v2.86h-11.49v7.89h12.27v2.86h-15.71Z"/><path class="cls-1" d="m91.25,127.27c-1.93,0-3.67-.24-5.24-.73-1.56-.49-2.92-1.18-4.08-2.09l1.19-2.79c.77.59,1.57,1.08,2.4,1.46.83.38,1.71.67,2.65.87.94.19,1.97.29,3.08.29,1.9,0,3.3-.34,4.2-1.02.9-.68,1.34-1.58,1.34-2.69,0-.95-.31-1.69-.94-2.21-.62-.52-1.72-.94-3.28-1.26l-3.71-.75c-2.2-.45-3.84-1.2-4.91-2.23-1.08-1.03-1.62-2.44-1.62-4.23,0-1.45.38-2.72,1.16-3.81.77-1.09,1.84-1.93,3.21-2.52,1.37-.59,2.97-.88,4.81-.88,1.7,0,3.26.24,4.69.73s2.63,1.21,3.6,2.16l-1.16,2.69c-1.02-.88-2.11-1.54-3.26-1.96-1.16-.42-2.47-.63-3.94-.63-1.75,0-3.11.36-4.1,1.09-.99.73-1.48,1.71-1.48,2.96,0,1,.31,1.78.93,2.35.62.57,1.66,1,3.11,1.29l3.71.71c2.29.48,3.98,1.21,5.07,2.19,1.09.99,1.63,2.34,1.63,4.06,0,1.38-.37,2.6-1.11,3.64-.74,1.04-1.79,1.85-3.14,2.43-1.36.58-2.97.87-4.83.87Z"/><path class="cls-1" d="m111.65,126.96v-21.01h-8.19v-2.96h19.92v2.96h-8.19v21.01h-3.54Z"/><path class="cls-1" d="m123.31,126.96l10.68-23.97h3.03l10.85,23.97h-3.64l-2.96-6.8,1.5.95h-14.52l1.6-.95-2.96,6.8h-3.57Zm12.14-20.09l-5.17,12.21-.82-.78h12.07l-.68.78-5.27-12.21h-.14Z"/><path class="cls-1" d="m162.31,127.27c-3.33,0-5.81-.84-7.43-2.52-1.62-1.68-2.43-4.16-2.43-7.45v-14.31h3.54v14.25c0,2.31.5,4.05,1.51,5.22,1.01,1.17,2.61,1.75,4.81,1.75,2.08,0,3.66-.58,4.73-1.75,1.07-1.17,1.6-2.91,1.6-5.22v-14.25h3.47v14.31c0,3.29-.83,5.77-2.48,7.45s-4.09,2.52-7.31,2.52Z"/><path class="cls-1" d="m179.31,126.96v-23.97h10.13c2.56,0,4.54.61,5.95,1.82,1.41,1.21,2.11,2.91,2.11,5.08,0,1.43-.32,2.65-.95,3.67-.63,1.02-1.53,1.8-2.69,2.33-1.16.53-2.52.8-4.08.8l.54-.54h.92c.93,0,1.76.24,2.5.71.74.48,1.34,1.24,1.82,2.28l3.43,7.82h-3.88l-3.4-7.85c-.34-.93-.87-1.53-1.58-1.8-.71-.27-1.59-.41-2.63-.41h-4.66v10.06h-3.54Zm3.54-12.75h6.02c1.7,0,2.99-.36,3.86-1.09.87-.73,1.31-1.77,1.31-3.13s-.44-2.43-1.31-3.13c-.87-.7-2.16-1.05-3.86-1.05h-6.02v8.4Z"/><path class="cls-1" d="m201.85,126.96l10.68-23.97h3.03l10.85,23.97h-3.64l-2.96-6.8,1.5.95h-14.52l1.6-.95-2.96,6.8h-3.57Zm12.14-20.09l-5.17,12.21-.82-.78h12.07l-.68.78-5.27-12.21h-.14Z"/><path class="cls-1" d="m231.29,126.96v-23.97h2.72l14.72,19.31h-.85v-19.31h3.3v23.97h-2.69l-14.69-19.31h.78v19.31h-3.3Z"/><path class="cls-1" d="m264.27,126.96v-21.01h-8.19v-2.96h19.92v2.96h-8.19v21.01h-3.54Z"/></g><line class="cls-2" x1="40.8" y1="137.82" x2="268.96" y2="137.82"/><g><path class="cls-1" d="m93.49,168.18c-.16,1.8-.28,3.33-.36,4.6-.08,1.27-.12,2.47-.12,3.6v49.3c0,2.87,2.8,4.3,8.4,4.3v5.7h-29.8v-5.7c6.55,0,9.83-1.43,9.83-4.3v-41.3h-10.54l-.32-5.4c7.4-.2,12.49-4.17,15.3-11.9l7.61,1.1Z"/><path class="cls-1" d="m118.22,226.38c.79,1.53,2.15,2.75,4.08,3.65,1.93.9,4.19,1.35,6.78,1.35,2.11,0,3.98-.43,5.59-1.3,1.61-.87,2.96-2.37,4.04-4.5,1.08-2.13,1.89-5.02,2.42-8.65.53-3.63.79-8.25.79-13.85-2.8,5.67-7.79,8.5-14.98,8.5-2.69,0-5.09-.53-7.17-1.6-2.09-1.07-3.86-2.55-5.31-4.45-1.45-1.9-2.55-4.1-3.29-6.6-.74-2.5-1.11-5.22-1.11-8.15s.32-5.9.95-8.7c.63-2.8,1.76-5.28,3.37-7.45,1.61-2.17,3.82-3.9,6.62-5.2s6.39-1.95,10.78-1.95c3.43,0,6.47.63,9.11,1.9,2.64,1.27,4.87,3.32,6.7,6.15,1.82,2.83,3.2,6.52,4.12,11.05.92,4.53,1.39,10.1,1.39,16.7,0,4.4-.41,8.65-1.23,12.75-.82,4.1-2.15,7.73-4,10.9-1.85,3.17-4.25,5.68-7.21,7.55-2.96,1.87-6.61,2.8-10.94,2.8-2.7,0-5.21-.42-7.53-1.25-2.33-.83-4.35-1.96-6.06-3.4-1.72-1.43-3.07-3.13-4.04-5.1-.98-1.96-1.47-4.08-1.47-6.35s.48-4.08,1.43-5.45c.95-1.37,2.35-2.05,4.2-2.05s3.28.67,4.28,2c1,1.33,1.51,3,1.51,5,0,1.53-.38,2.83-1.15,3.9s-1.65,1.67-2.65,1.8Zm13-53.2c-2.91,0-5.35,1.28-7.33,3.84-1.98,2.56-2.97,6.6-2.97,12.11,0,2.79.26,5.17.79,7.13.53,1.96,1.26,3.57,2.18,4.83s2.01,2.18,3.25,2.74c1.24.57,2.58.85,4,.85,2.91,0,5.31-1.2,7.21-3.59,1.9-2.39,2.85-6.28,2.85-11.66,0-2.86-.25-5.32-.75-7.38-.5-2.06-1.19-3.74-2.06-5.03-.87-1.3-1.92-2.26-3.13-2.89-1.21-.63-2.56-.95-4.04-.95Z"/><path class="cls-1" d="m201.44,172.28c-3.65,5-6.61,9.38-8.88,13.15-2.27,3.77-4.04,7.37-5.31,10.8-1.27,3.43-2.13,6.97-2.58,10.6-.45,3.63-.67,7.82-.67,12.55,0,1.13.04,2.28.12,3.45.08,1.17.12,2.28.12,3.35,0,1.4-.08,2.75-.24,4.05-.16,1.3-.46,2.45-.91,3.45-.45,1-1.07,1.8-1.86,2.4-.79.6-1.82.9-3.09.9-2.38,0-4.15-1.13-5.31-3.4s-1.74-5.3-1.74-9.1c0-4.67.54-9.08,1.62-13.25,1.08-4.17,2.56-8.1,4.44-11.8,1.88-3.7,4.07-7.15,6.58-10.35,2.51-3.2,5.19-6.17,8.04-8.9-1.27.8-2.47,1.33-3.61,1.6-1.14.27-2.15.4-3.05.4-1.53,0-2.93-.27-4.2-.8-1.27-.53-2.47-1.13-3.61-1.8-1.14-.67-2.26-1.27-3.37-1.8-1.11-.53-2.25-.8-3.41-.8-.58,0-1.16.12-1.74.35-.58.23-1.12.65-1.62,1.25-.5.6-.96,1.4-1.39,2.4-.42,1-.74,2.27-.95,3.8h-3.49c-.11-.87-.17-1.8-.2-2.8-.03-1-.04-1.9-.04-2.7,0-1.8.16-3.5.48-5.1s.84-3,1.58-4.2c.74-1.2,1.72-2.15,2.93-2.85,1.21-.7,2.75-1.05,4.6-1.05,2.54,0,4.61.37,6.22,1.1,1.61.73,3.13,1.52,4.56,2.35,1.43.83,2.95,1.62,4.56,2.35,1.61.73,3.69,1.1,6.22,1.1,1.58,0,2.88-.43,3.88-1.3,1-.87,2.01-2.27,3.01-4.2l2.3,4.8Z"/><path class="cls-1" d="m230.68,168.18c-.16,1.8-.28,3.33-.36,4.6-.08,1.27-.12,2.47-.12,3.6v49.3c0,2.87,2.8,4.3,8.4,4.3v5.7h-29.8v-5.7c6.55,0,9.83-1.43,9.83-4.3v-41.3h-10.54l-.32-5.4c7.4-.2,12.5-4.17,15.3-11.9l7.61,1.1Z"/></g></svg>